<svg width="131" height="34" viewBox="0 0 131 34" fill="none" xmlns="http://www.w3.org/2000/svg">
<path d="M8.36584 4.28027C9.07485 8.0707 12.0104 11.0386 15.7595 11.7554C12.0104 12.4722 9.07485 15.4401 8.36584 19.2305C7.65682 15.4401 4.72129 12.4722 0.972168 11.7554C4.72129 11.0386 7.65682 8.0707 8.36584 4.28027Z" fill="#DBF175"/>
<path d="M32.5948 0.448242H8.40913C8.96767 2.38987 9.87052 4.17936 11.0463 5.74452C12.9004 8.21474 15.8206 9.63035 18.8888 9.63035H30.8426C34.6989 9.63035 34.6989 13.5677 30.8426 13.5677H19.4295C16.8536 13.5677 14.3542 14.5553 12.5281 16.3912C12.5179 16.4015 12.5051 16.4144 12.4949 16.4247C10.2505 18.6938 9.01868 21.6308 8.39893 24.9235L8.42443 33.5513L19.6157 33.4765V22.7524H32.5973C49.4556 22.7524 49.4556 0.448242 32.5948 0.448242Z" fill="#F2F0E4"/>
<path d="M48.1855 0.448242H59.7492V25.0679H77.0946L74.0341 33.4765H48.1855V0.448242Z" fill="#F2F0E4"/>
<path d="M117.1 33.4791H105.103L103.56 29.4231H90.8515L89.3085 33.4791H77.3113L87.9491 0.448242H106.463L117.1 33.4791ZM100.359 21.0119L97.2046 7.6552L94.0497 21.0119H100.359Z" fill="#F2F0E4"/>
<path d="M119.409 33.4791V0.448242H130.972V33.4791H119.409Z" fill="#F2F0E4"/>
</svg>
