<svg width="86" height="77" viewBox="0 0 86 77" fill="none" xmlns="http://www.w3.org/2000/svg">
<g clip-path="url(#clip0_828_19337)">
<path d="M32.8766 68.5752C32.5291 62.2171 33.3546 55.475 30.0959 49.7144C24.9254 40.4973 12.5424 36.7422 3.02705 33.9685L1.54977 36.0168C14.1935 37.6383 26.0551 33.2858 31.2256 21.2524C33.8325 15.1503 34.9188 8.10953 34.3974 1.49543L31.269 2.30619C31.8773 10.1151 31.2256 19.2041 35.4836 26.1596C40.8279 34.822 52.8633 36.7422 62.2049 37.8517L62.509 35.8034C58.251 36.9982 53.9061 37.7236 49.5611 38.5344C46.5631 39.0891 43.5652 39.8145 41.0451 41.6068C38.2209 43.5696 36.4395 46.5567 35.136 49.629C32.4856 55.7737 31.1387 62.4305 29.7483 68.9166C29.4442 70.3674 32.6594 69.9407 32.9201 68.6606C34.2236 62.5585 35.527 56.2858 37.9168 50.4824C39.0899 47.5808 40.6541 44.4657 43.4348 42.7162C45.6942 41.2654 48.4315 40.8387 51.0384 40.3693C55.0792 39.6439 59.12 38.9184 63.0738 37.809C64.247 37.4676 65.0725 35.9741 63.378 35.7607C54.2971 34.6939 42.4789 32.8591 37.8733 23.898C34.4408 17.1986 35.0491 8.79227 34.4408 1.5381C34.3539 0.215279 31.1821 0.940697 31.3125 2.34886C31.7035 7.5548 30.878 13.9129 29.0531 19.1188C27.5324 23.4713 25.0123 27.6105 21.2323 30.4268C15.888 34.3526 9.15338 34.7366 2.76635 33.9259C1.68012 33.7978 -0.535787 35.462 1.28908 35.9741C10.4134 38.6197 22.4488 42.1615 27.3151 51.0798C30.3131 56.4991 29.5311 62.9852 29.8352 68.9166C29.9221 70.4528 33.0939 69.898 33.007 68.6606L32.8766 68.5752Z" fill="white"/>
</g>
<g clip-path="url(#clip1_828_19337)">
<path d="M71.0265 32.2138C70.8739 29.3341 71.2363 26.2805 69.8058 23.6714C67.5361 19.4968 62.1002 17.796 57.9231 16.5398L57.2746 17.4675C62.825 18.2019 68.032 16.2306 70.3017 10.7804C71.4461 8.01673 71.923 4.82782 71.6941 1.83217L70.3208 2.19938C70.5878 5.73617 70.3017 9.85276 72.1709 13.003C74.517 16.9263 79.8003 17.796 83.9011 18.2985L84.0346 17.3709C82.1654 17.912 80.258 18.2406 78.3507 18.6078C77.0346 18.859 75.7186 19.1876 74.6123 19.9993C73.3725 20.8883 72.5905 22.2412 72.0183 23.6327C70.8549 26.4158 70.2636 29.4307 69.6532 32.3684C69.5197 33.0255 70.9312 32.8322 71.0456 32.2524C71.6178 29.4887 72.19 26.6477 73.239 24.0193C73.754 22.705 74.4407 21.2942 75.6614 20.5018C76.6532 19.8447 77.8548 19.6514 78.9992 19.4388C80.773 19.1103 82.5469 18.7817 84.2825 18.2792C84.7975 18.1246 85.1599 17.4482 84.416 17.3515C80.4297 16.8684 75.2417 16.0373 73.22 11.9787C71.7132 8.94441 71.9802 5.13704 71.7132 1.8515C71.675 1.25237 70.2827 1.58093 70.3399 2.21871C70.5115 4.57657 70.1491 7.45625 69.3481 9.81411C68.6805 11.7854 67.5742 13.6601 65.9148 14.9357C63.5688 16.7137 60.6124 16.8877 57.8087 16.5205C57.3318 16.4625 56.3591 17.2162 57.1602 17.4482C61.1656 18.6464 66.4489 20.2505 68.5851 24.2898C69.9012 26.7443 69.5579 29.682 69.6914 32.3684C69.7295 33.0642 71.1219 32.8129 71.0837 32.2524L71.0265 32.2138Z" fill="white"/>
</g>
<g clip-path="url(#clip2_828_19337)">
<path d="M56.7599 76.3427C56.6073 73.463 56.9697 70.4094 55.5392 67.8003C53.2695 63.6257 47.8336 61.925 43.6565 60.6687L43.008 61.5964C48.5584 62.3308 53.7654 60.3595 56.0351 54.9094C57.1795 52.1456 57.6564 48.9567 57.4275 45.9611L56.0542 46.3283C56.3212 49.8651 56.0351 53.9817 57.9043 57.1319C60.2504 61.0553 65.5337 61.925 69.6345 62.4274L69.768 61.4998C67.8988 62.0409 65.9914 62.3695 64.0841 62.7367C62.768 62.9879 61.452 63.3165 60.3457 64.1282C59.1059 65.0172 58.3239 66.3701 57.7517 67.7616C56.5883 70.5447 55.997 73.5596 55.3866 76.4973C55.2531 77.1544 56.6646 76.9611 56.779 76.3813C57.3512 73.6176 57.9234 70.7766 58.9724 68.1482C59.4874 66.8339 60.1741 65.4231 61.3948 64.6307C62.3866 63.9736 63.5882 63.7803 64.7326 63.5677C66.5064 63.2392 68.2803 62.9106 70.0159 62.4081C70.5309 62.2535 70.8933 61.5771 70.1494 61.4804C66.1631 60.9973 60.9751 60.1662 58.9534 56.1076C57.4466 53.0733 57.7136 49.2659 57.4466 45.9804C57.4084 45.3813 56.0161 45.7098 56.0733 46.3476C56.2449 48.7055 55.8825 51.5852 55.0815 53.943C54.4139 55.9143 53.3076 57.789 51.6482 59.0646C49.3022 60.8427 46.3458 61.0166 43.5421 60.6494C43.0652 60.5914 42.0925 61.3452 42.8936 61.5771C46.899 62.7753 52.1823 64.3794 54.3185 68.4187C55.6346 70.8732 55.2913 73.8109 55.4248 76.4973C55.4629 77.1931 56.8553 76.9418 56.8171 76.3813L56.7599 76.3427Z" fill="white"/>
</g>
<defs>
<clipPath id="clip0_828_19337">
<rect width="65" height="69" fill="white" transform="translate(0.463867 0.8125)"/>
</clipPath>
<clipPath id="clip1_828_19337">
<rect width="28.5338" height="31.2513" fill="white" transform="translate(56.7979 1.52246)"/>
</clipPath>
<clipPath id="clip2_828_19337">
<rect width="28.5338" height="31.2513" fill="white" transform="translate(42.5312 45.6514)"/>
</clipPath>
</defs>
</svg>
