<svg width="460" height="309" viewBox="0 0 460 309" fill="none" xmlns="http://www.w3.org/2000/svg">
<path opacity="0.3" d="M213.795 -47.0326C210.856 -41.9418 204.346 -40.1975 199.255 -43.1367C194.164 -46.0759 192.42 -52.5857 195.359 -57.6765C198.298 -62.7674 204.808 -64.5117 209.899 -61.5725C214.99 -58.6333 216.734 -52.1228 213.795 -47.0326ZM205.042 66.7937C200.55 64.2002 194.806 65.7392 192.212 70.2314C189.619 74.7236 191.158 80.4675 195.65 83.061C200.142 85.6546 205.886 84.1155 208.48 79.6234C211.073 75.1312 209.534 69.3873 205.042 66.7937ZM50.6452 -78.0535C46.153 -80.647 40.4091 -79.108 37.8155 -74.6158C35.222 -70.1236 36.761 -64.3797 41.2532 -61.7862C45.7454 -59.1926 51.4893 -60.7317 54.0829 -65.2238C56.6764 -69.716 55.1373 -75.4599 50.6452 -78.0535Z" fill="#FFB636"/>
<path opacity="0.3" d="M502.705 119.77C499.766 124.86 493.256 126.605 488.165 123.666C483.074 120.726 481.33 114.217 484.269 109.126C487.209 104.035 493.718 102.291 498.809 105.23C503.9 108.169 505.644 114.679 502.705 119.77ZM493.952 233.596C489.46 231.002 483.716 232.541 481.123 237.034C478.529 241.526 480.068 247.27 484.56 249.863C489.052 252.457 494.796 250.918 497.39 246.426C499.984 241.933 498.444 236.19 493.952 233.596ZM339.555 88.7488C335.063 86.1552 329.319 87.6943 326.726 92.1865C324.132 96.6786 325.671 102.423 330.163 105.016C334.656 107.61 340.399 106.071 342.993 101.578C345.587 97.0862 344.047 91.3423 339.555 88.7488Z" fill="#FFB636"/>
<path opacity="0.3" d="M77.0805 -0.616484C73.6851 5.26452 66.1646 7.27966 60.2836 3.88426C54.4026 0.488861 52.3875 -7.03169 55.7829 -12.9127C59.1783 -18.7937 66.6988 -20.8088 72.5798 -17.4134C78.4619 -14.0183 80.4763 -6.49815 77.0805 -0.616484ZM333.107 -60.5535C331.519 -66.785 327.611 -72.6221 322.101 -76.9901C318.888 -79.5399 314.201 -79.0034 311.646 -75.7818C309.092 -72.5605 309.633 -67.8799 312.854 -65.3262C315.782 -63.0048 317.906 -59.9258 318.683 -56.879C319.031 -55.5134 319.396 -52.9473 317.933 -51.1023C316.471 -49.2572 313.889 -49.0276 312.48 -49.0549C309.335 -49.1154 305.855 -50.4825 302.926 -52.8036C290.957 -62.2895 274.844 -61.9728 267.006 -52.0897C259.17 -42.2066 262.533 -26.4449 274.502 -16.9546C274.565 -16.9052 274.633 -16.8691 274.697 -16.8217C280.461 -12.1396 281.92 -5.68033 279.597 -2.75048C278.135 -0.90607 275.553 -0.675782 274.144 -0.703156C270.999 -0.764279 267.518 -2.12873 264.59 -4.45177C252.622 -13.9386 236.508 -13.621 228.67 -3.73794C220.834 6.14522 224.197 21.9069 236.166 31.3972C236.458 31.6281 236.762 31.8343 237.076 32.0158C240.218 33.83 244.299 33.1175 246.621 30.189C249.175 26.9683 248.634 22.2877 245.413 19.7333C239.494 15.0406 237.986 8.47044 240.334 5.51007C242.682 2.54839 249.423 2.51331 255.342 7.21176C256.66 8.25716 258.041 9.19464 259.466 10.0174C263.991 12.6299 268.965 14.0843 273.856 14.1788C280.938 14.3159 287.282 11.5161 291.261 6.4969C299.097 -3.38628 295.734 -19.148 283.765 -28.6383C283.686 -28.7006 283.603 -28.7528 283.522 -28.8118C277.8 -33.4904 276.354 -39.921 278.669 -42.8421C281.018 -45.8038 287.76 -45.8368 293.677 -41.1404C294.996 -40.0947 296.376 -39.1575 297.801 -38.3348C302.327 -35.7219 307.301 -34.2678 312.191 -34.1734C319.273 -34.0362 325.617 -36.8361 329.597 -41.8553C333.576 -46.8745 334.855 -53.6895 333.107 -60.5535Z" fill="#BEA4FF"/>
<path opacity="0.5" d="M365.992 166.186C362.596 172.067 355.076 174.082 349.195 170.687C343.314 167.292 341.299 159.771 344.694 153.89C348.089 148.009 355.61 145.994 361.491 149.389C367.373 152.784 369.387 160.305 365.992 166.186ZM622.018 106.249C620.431 100.018 616.522 94.1806 611.013 89.8126C607.8 87.2629 603.112 87.7994 600.557 91.0209C598.003 94.2422 598.544 98.9229 601.765 101.477C604.693 103.798 606.818 106.877 607.595 109.924C607.942 111.289 608.307 113.855 606.844 115.7C605.382 117.546 602.8 117.775 601.391 117.748C598.246 117.687 594.766 116.32 591.837 113.999C579.868 104.513 563.755 104.83 555.917 114.713C548.081 124.596 551.444 140.358 563.413 149.848C563.476 149.898 563.545 149.934 563.608 149.981C569.372 154.663 570.831 161.122 568.508 164.052C567.046 165.897 564.464 166.127 563.055 166.1C559.91 166.038 556.429 164.674 553.501 162.351C541.533 152.864 525.419 153.182 517.581 163.065C509.745 172.948 513.108 188.71 525.077 198.2C525.369 198.431 525.673 198.637 525.987 198.819C529.129 200.633 533.21 199.92 535.533 196.992C538.086 193.771 537.545 189.09 534.324 186.536C528.405 181.843 526.897 175.273 529.245 172.313C531.593 169.351 538.335 169.316 544.253 174.014C545.571 175.06 546.952 175.997 548.377 176.82C552.902 179.433 557.876 180.887 562.767 180.981C569.849 181.119 576.193 178.319 580.172 173.3C588.008 163.416 584.646 147.655 572.676 138.164C572.597 138.102 572.514 138.05 572.434 137.991C566.711 133.312 565.265 126.882 567.58 123.961C569.929 120.999 576.671 120.966 582.588 125.662C583.907 126.708 585.287 127.645 586.712 128.468C591.238 131.081 596.212 132.535 601.102 132.629C608.185 132.766 614.528 129.967 618.508 124.947C622.487 119.928 623.767 113.113 622.018 106.249Z" fill="#BEA4FF" fill-opacity="0.3"/>
<path opacity="0.3" d="M183.063 23.4469C179.667 29.3279 172.147 31.3431 166.266 27.9477C160.385 24.5523 158.37 17.0317 161.765 11.1507C165.16 5.2697 172.681 3.25457 178.562 6.64997C184.443 10.0447 186.458 17.5653 183.063 23.4469ZM135.137 -148.423C133.323 -154.839 129.123 -160.775 123.311 -165.14C123.23 -165.201 123.144 -165.251 123.061 -165.309C117.882 -169.335 116.137 -175.116 118.063 -177.682C120.893 -181.449 120.132 -186.797 116.366 -189.626C112.6 -192.45 107.25 -191.695 104.421 -187.929C96.3521 -177.184 100.142 -161.173 113.05 -151.478C113.122 -151.424 113.199 -151.382 113.272 -151.331C115.965 -149.246 117.947 -146.51 118.719 -143.78C119.048 -142.618 119.43 -140.443 118.297 -138.935C117.166 -137.428 114.97 -137.189 113.763 -137.181C110.852 -137.162 107.576 -138.355 104.775 -140.461C98.9625 -144.828 92.0913 -147.205 85.4244 -147.16C77.999 -147.11 71.4157 -143.986 67.3633 -138.591C59.2933 -127.847 63.0833 -111.836 75.9908 -102.14C76.272 -101.93 76.561 -101.738 76.858 -101.567C80.5409 -99.4406 85.3169 -100.352 87.9348 -103.838C90.765 -107.605 90.0044 -112.953 86.2377 -115.782C80.8703 -119.813 79.0481 -125.74 81.0046 -128.344C82.1372 -129.852 84.3322 -130.091 85.5402 -130.099C88.4507 -130.118 91.7277 -128.924 94.5278 -126.819C95.6699 -125.961 96.8527 -125.18 98.0672 -124.479C103.032 -121.613 108.521 -120.083 113.878 -120.12C121.304 -120.17 127.887 -123.294 131.939 -128.689C135.992 -134.085 137.158 -141.277 135.137 -148.423ZM267.198 128.965C271.901 128.698 275.497 124.668 275.23 119.964C272.268 67.9142 306.616 52.2612 327.137 42.9087C329.633 41.7716 331.99 40.6967 333.998 39.672C338.195 37.5309 339.862 32.3933 337.72 28.1961C335.579 23.999 330.441 22.333 326.245 24.4741C324.571 25.328 322.481 26.2801 320.06 27.3836C298.803 37.0717 254.57 57.2305 258.195 120.933C258.275 122.348 258.706 123.72 259.449 124.926C260.193 126.132 261.225 127.134 262.453 127.841C263.891 128.672 265.541 129.063 267.198 128.965Z" fill="#FF6E83"/>
<path opacity="0.3" d="M471.974 190.25C468.578 196.131 461.058 198.146 455.177 194.75C449.296 191.355 447.281 183.834 450.676 177.953C454.072 172.072 461.592 170.057 467.473 173.453C473.354 176.847 475.37 184.368 471.974 190.25ZM424.048 18.3795C422.234 11.9642 418.034 6.02726 412.222 1.66293C412.141 1.60189 412.055 1.55148 411.972 1.49411C406.793 -2.53204 405.048 -8.31354 406.975 -10.8792C409.804 -14.6465 409.043 -19.9945 405.277 -22.8236C401.511 -25.6469 396.161 -24.8925 393.332 -21.1258C385.263 -10.3816 389.053 5.62938 401.961 15.3248C402.033 15.3788 402.11 15.4205 402.183 15.4715C404.876 17.5568 406.858 20.2928 407.63 23.0228C407.959 24.1844 408.341 26.3594 407.209 27.8679C406.077 29.3751 403.881 29.6137 402.674 29.6219C399.763 29.6411 396.487 28.4473 393.686 26.3422C387.874 21.9751 381.002 19.5975 374.336 19.6432C366.91 19.6931 360.327 22.8168 356.274 28.2115C348.204 38.956 351.994 54.9663 364.902 64.6623C365.183 64.8732 365.472 65.0643 365.769 65.2358C369.452 67.3621 374.228 66.4511 376.846 62.9651C379.676 59.1981 378.915 53.8501 375.149 51.021C369.781 46.9897 367.959 41.0631 369.916 38.4584C371.048 36.9509 373.243 36.712 374.451 36.7042C377.362 36.6845 380.639 37.8791 383.439 39.9834C384.581 40.8419 385.764 41.6223 386.978 42.3234C391.944 45.1901 397.432 46.7196 402.789 46.6824C410.215 46.6329 416.798 43.5088 420.85 38.1141C424.903 32.7181 426.069 25.5254 424.048 18.3795ZM556.109 295.768C560.813 295.501 564.409 291.471 564.141 286.766C561.179 234.717 595.527 219.064 616.048 209.711C618.544 208.574 620.901 207.499 622.909 206.475C627.106 204.334 628.773 199.196 626.632 194.999C624.49 190.802 619.352 189.136 615.156 191.277C613.482 192.131 611.392 193.083 608.971 194.186C587.715 203.874 543.481 224.033 547.106 287.736C547.186 289.151 547.617 290.523 548.36 291.729C549.104 292.935 550.136 293.937 551.364 294.644C552.802 295.475 554.452 295.866 556.109 295.768Z" fill="#FF6E83"/>
<path opacity="0.3" d="M203.661 -93.8268C201.309 -89.7524 196.099 -88.3565 192.025 -90.7089C187.95 -93.0613 186.555 -98.2708 188.907 -102.345C191.259 -106.42 196.469 -107.815 200.543 -105.463C204.618 -103.111 206.013 -97.9012 203.661 -93.8268ZM368.1 -15.4381C364.145 -17.7217 359.088 -16.366 356.804 -12.4114C354.521 -8.45672 355.876 -3.39911 359.831 -1.11551C363.786 1.16809 368.844 -0.18757 371.127 -4.14223C373.41 -8.0969 372.055 -13.1549 368.1 -15.4381ZM100.233 -25.7565C102.041 -26.3188 104.157 -26.9018 106.398 -27.5188C117.765 -30.6522 133.334 -34.9417 145.447 -46.1087C159.997 -59.5239 165.654 -79.4425 162.259 -105.313C161.67 -109.803 157.552 -112.964 153.063 -112.375C148.574 -111.786 145.412 -107.669 146 -103.179C148.699 -82.6166 144.882 -67.8921 134.332 -58.1653C125.144 -49.6951 112.334 -46.1647 102.041 -43.3279C99.669 -42.6739 97.4285 -42.0569 95.3653 -41.4156C91.0414 -40.0707 88.6261 -35.4756 89.9704 -31.1521C90.5795 -29.1819 91.9114 -27.5151 93.6986 -26.4864C94.678 -25.9189 95.7645 -25.561 96.8894 -25.4354C98.0143 -25.3097 99.153 -25.4191 100.233 -25.7565Z" fill="#59CAFC"/>
<path opacity="0.3" d="M492.572 72.9754C490.22 77.0498 485.01 78.4457 480.936 76.0933C476.862 73.741 475.466 68.5315 477.818 64.4571C480.17 60.3827 485.38 58.9868 489.454 61.3392C493.529 63.6915 494.925 68.901 492.572 72.9754ZM657.011 151.364C653.056 149.081 647.999 150.436 645.716 154.391C643.432 158.346 644.787 163.403 648.742 165.687C652.698 167.97 657.755 166.615 660.038 162.66C662.321 158.705 660.966 153.647 657.011 151.364ZM389.145 141.046C390.953 140.483 393.068 139.9 395.309 139.283C406.677 136.15 422.245 131.861 434.358 120.694C448.908 107.278 454.565 87.3598 451.17 61.4897C450.582 56.9989 446.463 53.8386 441.974 54.4268C437.485 55.0164 434.323 59.1331 434.911 63.6229C437.61 84.1856 433.793 98.9102 423.243 108.637C414.055 117.107 401.245 120.638 390.952 123.474C388.58 124.128 386.34 124.745 384.276 125.387C379.953 126.732 377.537 131.327 378.881 135.65C379.491 137.62 380.822 139.287 382.61 140.316C383.589 140.883 384.676 141.241 385.801 141.367C386.925 141.493 388.064 141.383 389.145 141.046Z" fill="#59CAFC"/>
</svg>
