<svg width="468" height="307" viewBox="0 0 468 307" fill="none" xmlns="http://www.w3.org/2000/svg">
<path opacity="0.3" d="M-22.6968 110.908C-19.8031 116.024 -21.6054 122.518 -26.7223 125.412C-31.8392 128.306 -38.3332 126.503 -41.2268 121.386C-44.1205 116.27 -42.3182 109.776 -37.2013 106.882C-32.0844 103.988 -25.59 105.791 -22.6968 110.908ZM70.924 176.239C66.4088 178.792 64.8186 184.522 67.3719 189.038C69.9253 193.553 75.6552 195.143 80.1704 192.59C84.6855 190.036 86.2758 184.306 83.7224 179.791C81.1691 175.276 75.4391 173.686 70.924 176.239ZM-132.255 235.716C-136.77 238.269 -138.36 243.999 -135.807 248.515C-133.254 253.03 -127.524 254.62 -123.008 252.067C-118.493 249.513 -116.903 243.783 -119.456 239.268C-122.01 234.753 -127.74 233.163 -132.255 235.716Z" fill="#FFB636"/>
<path opacity="0.3" d="M267.69 -53.3098C270.584 -48.1929 268.781 -41.6989 263.664 -38.8053C258.547 -35.9116 252.054 -37.7139 249.16 -42.8308C246.266 -47.9477 248.069 -54.4417 253.185 -57.3353C258.302 -60.229 264.797 -58.426 267.69 -53.3098ZM361.311 12.0218C356.796 14.5751 355.205 20.3051 357.759 24.8202C360.312 29.3354 366.042 30.9256 370.557 28.3723C375.072 25.8189 376.663 20.089 374.109 15.5738C371.556 11.0587 365.826 9.46841 361.311 12.0218ZM158.132 71.4988C153.617 74.0521 152.026 79.7821 154.58 84.2972C157.133 88.8124 162.863 90.4026 167.378 87.8493C171.893 85.2959 173.484 79.566 170.93 75.0508C168.377 70.5357 162.647 68.9454 158.132 71.4988Z" fill="#FFB636"/>
<path opacity="0.3" d="M-52.1201 252.257C-48.7774 258.168 -50.8595 265.67 -56.7706 269.013C-62.6817 272.356 -70.1839 270.274 -73.5267 264.363C-76.8695 258.451 -74.7873 250.949 -68.8762 247.606C-62.9649 244.263 -55.4633 246.345 -52.1201 252.257ZM26.2295 1.25237C20.0549 -0.543814 13.0419 -0.140409 6.48134 2.38882C2.65333 3.86239 0.73547 8.17349 2.21389 12.0101C3.69261 15.8457 7.9996 17.7563 11.8352 16.2776C15.3218 14.9333 19.0529 14.6666 22.0723 15.5442C23.4252 15.9381 25.8212 16.9264 26.6682 19.1233C27.5152 21.3201 26.4023 23.6609 25.6635 24.8607C24.0147 27.5395 21.07 29.8436 17.5831 31.1888C3.33385 36.6845 -4.574 50.727 -0.0386835 62.4971C4.49757 74.2657 19.7839 79.3712 34.037 73.8777C34.1113 73.8487 34.1773 73.8079 34.2505 73.777C41.2105 71.1886 47.5163 73.2107 48.861 76.6997C49.7076 78.8959 48.595 81.2374 47.8562 82.4372C46.207 85.1153 43.2639 87.422 39.7758 88.7653C25.5265 94.2593 17.6188 108.303 22.1541 120.073C26.6903 131.842 41.9766 136.948 56.2297 131.454C56.5771 131.319 56.9088 131.163 57.2249 130.984C60.3831 129.198 61.8411 125.32 60.4972 121.833C59.0188 117.998 54.7118 116.087 50.8759 117.565C43.8279 120.282 37.4016 118.246 36.0432 114.72C34.684 111.193 38.0764 105.368 45.129 102.654C46.699 102.049 48.2077 101.336 49.64 100.526C54.1882 97.9537 57.9668 94.4065 60.5309 90.2414C64.2449 84.2094 65.0535 77.3226 62.7497 71.3459C58.2135 59.5772 42.9272 54.4717 28.6741 59.9652C28.5804 60.0017 28.4932 60.0466 28.4013 60.0863C21.4652 62.6412 15.1908 60.6222 13.8498 57.1443C12.4906 53.6173 15.8851 47.7921 22.9356 45.0783C24.5062 44.4729 26.0142 43.7597 27.4465 42.9497C31.9954 40.3773 35.7733 36.8305 38.3375 32.6653C42.0515 26.6333 42.8601 19.7465 40.5563 13.7698C38.2525 7.79308 33.0307 3.23086 26.2295 1.25237Z" fill="#BEA4FF"/>
<path opacity="0.5" d="M238.269 88.0391C241.611 93.9502 239.529 101.452 233.618 104.795C227.707 108.138 220.205 106.056 216.862 100.145C213.519 94.2336 215.601 86.7314 221.512 83.3886C227.424 80.0448 234.925 82.1273 238.269 88.0391ZM316.618 -162.965C310.444 -164.762 303.431 -164.358 296.87 -161.829C293.042 -160.355 291.124 -156.044 292.603 -152.208C294.081 -148.372 298.388 -146.462 302.224 -147.94C305.71 -149.284 309.442 -149.551 312.461 -148.674C313.814 -148.28 316.21 -147.291 317.057 -145.095C317.904 -142.898 316.791 -140.557 316.052 -139.357C314.403 -136.678 311.459 -134.374 307.972 -133.029C293.723 -127.533 285.815 -113.491 290.35 -101.721C294.886 -89.9521 310.173 -84.8466 324.426 -90.3401C324.5 -90.3691 324.566 -90.4099 324.639 -90.4408C331.599 -93.0292 337.905 -91.0071 339.25 -87.5181C340.096 -85.3219 338.984 -82.9804 338.245 -81.7806C336.596 -79.1025 333.653 -76.7958 330.165 -75.4525C315.915 -69.9585 308.007 -55.9143 312.543 -44.1443C317.079 -32.3757 332.365 -27.2701 346.618 -32.7637C346.966 -32.8984 347.297 -33.0552 347.614 -33.2339C350.772 -35.0199 352.23 -38.8973 350.886 -42.3849C349.407 -46.2199 345.101 -48.1305 341.265 -46.6524C334.217 -43.9357 327.79 -45.9718 326.432 -49.4974C325.073 -53.0244 328.465 -58.8502 335.518 -61.5634C337.088 -62.1685 338.596 -62.882 340.029 -63.692C344.577 -66.2641 348.355 -69.8112 350.92 -73.9764C354.634 -80.0084 355.442 -86.8952 353.138 -92.8719C348.602 -104.641 333.316 -109.746 319.063 -104.253C318.969 -104.216 318.882 -104.171 318.79 -104.131C311.854 -101.577 305.579 -103.596 304.238 -107.073C302.879 -110.601 306.274 -116.426 313.324 -119.139C314.895 -119.745 316.403 -120.458 317.835 -121.268C322.384 -123.84 326.162 -127.387 328.726 -131.552C332.44 -137.584 333.249 -144.471 330.945 -150.448C328.641 -156.425 323.419 -160.987 316.618 -162.965Z" fill="#BEA4FF" fill-opacity="0.3"/>
<path opacity="0.3" d="M22.4204 173.168C25.7632 179.079 23.681 186.581 17.7699 189.924C11.8588 193.267 4.35658 191.184 1.0138 185.273C-2.32898 179.362 -0.246817 171.86 5.66426 168.517C11.575 165.174 19.0772 167.256 22.4204 173.168ZM-149.983 127.197C-156.431 125.503 -163.678 126.107 -170.389 128.898C-170.483 128.937 -170.57 128.986 -170.661 129.028C-176.759 131.446 -182.626 130.014 -183.859 127.051C-185.668 122.701 -190.661 120.641 -195.011 122.45C-199.355 124.261 -201.421 129.252 -199.613 133.602C-194.453 146.009 -178.735 150.873 -163.829 144.675C-163.745 144.64 -163.67 144.595 -163.589 144.558C-160.426 143.297 -157.062 142.978 -154.318 143.699C-153.15 144.005 -151.083 144.78 -150.358 146.522C-149.634 148.262 -150.543 150.275 -151.149 151.319C-152.611 153.837 -155.302 156.053 -158.538 157.398C-165.251 160.188 -170.788 164.9 -174.134 170.667C-177.861 177.09 -178.512 184.347 -175.922 190.578C-170.762 202.985 -155.045 207.849 -140.138 201.651C-139.814 201.516 -139.502 201.364 -139.204 201.195C-135.502 199.102 -133.862 194.525 -135.536 190.499C-137.345 186.149 -142.338 184.089 -146.688 185.897C-152.886 188.475 -158.917 187.036 -160.168 184.028C-160.892 182.286 -159.983 180.274 -159.377 179.229C-157.916 176.712 -155.223 174.495 -151.988 173.151C-150.669 172.603 -149.396 171.98 -148.175 171.29C-143.185 168.468 -139.08 164.515 -136.393 159.882C-132.665 153.459 -132.014 146.201 -134.605 139.971C-137.196 133.74 -142.8 129.084 -149.983 127.197ZM156.044 154.255C158.202 150.068 156.556 144.924 152.366 142.766C106.02 118.892 109.974 81.3525 112.335 58.9248C112.623 56.1972 112.893 53.6204 113.03 51.3699C113.316 46.6672 109.737 42.6226 105.033 42.3369C100.33 42.0512 96.2862 45.6313 96.0001 50.3339C95.886 52.2094 95.6451 54.4934 95.3669 57.139C92.9213 80.3711 87.8306 128.715 144.553 157.934C145.812 158.583 147.213 158.909 148.63 158.88C150.047 158.852 151.434 158.471 152.666 157.772C154.112 156.956 155.286 155.733 156.044 154.255Z" fill="#FF6E83"/>
<path opacity="0.3" d="M312.808 8.94985C316.151 14.8609 314.069 22.3632 308.158 25.706C302.247 29.0487 294.744 26.9666 291.401 21.0555C288.059 15.1444 290.141 7.64215 296.052 4.29937C301.963 0.955946 309.465 3.03811 312.808 8.94985ZM140.405 -37.0211C133.957 -38.7149 126.71 -38.1111 119.999 -35.3197C119.905 -35.2805 119.818 -35.2322 119.726 -35.1901C113.628 -32.7723 107.761 -34.2038 106.529 -37.1665C104.72 -41.5169 99.7264 -43.5768 95.3766 -41.7681C91.0325 -39.9572 88.9663 -34.9653 90.7751 -30.6156C95.9348 -18.209 111.653 -13.3449 126.559 -19.543C126.642 -19.5778 126.717 -19.6228 126.798 -19.66C129.962 -20.921 133.326 -21.2401 136.07 -20.5192C137.237 -20.2125 139.305 -19.4373 140.03 -17.6959C140.754 -15.9557 139.844 -13.943 139.238 -12.8987C137.777 -10.3809 135.085 -8.16488 131.85 -6.82021C125.136 -4.03009 119.599 0.682551 116.254 6.44941C112.527 12.8719 111.876 20.1296 114.466 26.3598C119.625 38.7674 135.343 43.6308 150.25 37.4334C150.574 37.2982 150.885 37.1462 151.184 36.9775C154.886 34.8841 156.526 30.3068 154.852 26.2816C153.043 21.9308 148.049 19.8709 143.7 21.6796C137.502 24.257 131.47 22.8179 130.22 19.8099C129.496 18.0687 130.405 16.0564 131.011 15.0117C132.472 12.4942 135.165 10.2775 138.399 8.93356C139.719 8.38549 140.992 7.7626 142.212 7.07228C147.203 4.25005 151.308 0.297723 153.995 -4.33607C157.723 -10.7589 158.373 -18.0163 155.783 -24.2464C153.192 -30.4779 147.587 -35.1342 140.405 -37.0211ZM446.432 -9.96237C448.589 -14.15 446.943 -19.2942 442.754 -21.452C396.408 -45.3262 400.361 -82.8652 402.723 -105.293C403.01 -108.021 403.281 -110.597 403.418 -112.848C403.704 -117.551 400.124 -121.595 395.421 -121.881C390.718 -122.167 386.674 -118.587 386.388 -113.884C386.274 -112.008 386.033 -109.724 385.755 -107.079C383.309 -83.8466 378.218 -35.5031 434.941 -6.28395C436.2 -5.63443 437.601 -5.30908 439.018 -5.33728C440.434 -5.3655 441.822 -5.74639 443.054 -6.44553C444.5 -7.26211 445.674 -8.4849 446.432 -9.96237Z" fill="#FF6E83"/>
<path opacity="0.3" d="M-68.1567 95.8798C-65.8408 99.975 -67.2831 105.172 -71.3784 107.488C-75.4736 109.804 -80.6704 108.361 -82.9863 104.266C-85.3022 100.171 -83.8599 94.974 -79.7647 92.6581C-75.6694 90.3422 -70.4726 91.7846 -68.1567 95.8798ZM82.8647 -5.99044C78.8892 -3.74223 77.4895 1.30308 79.7373 5.27796C81.9851 9.25285 87.0302 10.6536 91.0057 8.40538C94.9812 6.15717 96.3809 1.11186 94.1331 -2.86302C91.8853 -6.8379 86.8396 -8.23828 82.8647 -5.99044ZM-62.0235 219.546C-61.59 217.702 -61.0181 215.584 -60.4122 213.34C-57.34 201.956 -53.1312 186.365 -56.6023 170.26C-60.7724 150.913 -75.0607 135.927 -99.0721 125.717C-103.24 123.945 -108.054 125.888 -109.826 130.054C-111.597 134.221 -109.656 139.035 -105.489 140.808C-86.4038 148.923 -75.656 159.687 -72.6325 173.715C-69.9999 185.931 -73.4623 198.759 -76.2438 209.067C-76.8848 211.443 -77.4908 213.686 -77.9858 215.789C-79.0225 220.197 -76.2899 224.611 -71.8826 225.648C-69.876 226.124 -67.7638 225.822 -65.9701 224.805C-64.9839 224.249 -64.124 223.495 -63.4446 222.59C-62.7652 221.684 -62.2813 220.648 -62.0235 219.546Z" fill="#59CAFC"/>
<path opacity="0.3" d="M222.231 -68.3375C224.547 -64.2423 223.105 -59.0454 219.009 -56.7295C214.914 -54.4136 209.717 -55.856 207.401 -59.9512C205.085 -64.0464 206.528 -69.2432 210.623 -71.5591C214.718 -73.875 219.915 -72.4327 222.231 -68.3375ZM373.252 -170.208C369.277 -167.96 367.877 -162.914 370.125 -158.939C372.373 -154.964 377.418 -153.564 381.393 -155.812C385.369 -158.06 386.769 -163.105 384.521 -167.08C382.273 -171.055 377.227 -172.456 373.252 -170.208ZM228.364 55.3283C228.798 53.4852 229.37 51.3666 229.976 49.1231C233.048 37.7385 237.257 22.1476 233.785 6.04299C229.615 -13.3039 215.327 -28.2903 191.316 -38.5C187.148 -40.2728 182.334 -38.3291 180.562 -34.1632C178.79 -29.9959 180.732 -25.1818 184.899 -23.4093C203.984 -15.2943 214.732 -4.5301 217.755 9.49739C220.388 21.7133 216.925 34.5422 214.144 44.8496C213.503 47.2255 212.897 49.469 212.402 51.5721C211.365 55.9801 214.098 60.3939 218.505 61.4309C220.512 61.9064 222.624 61.6052 224.418 60.5877C225.404 60.0321 226.264 59.2777 226.943 58.3724C227.622 57.467 228.106 56.4304 228.364 55.3283Z" fill="#59CAFC"/>
</svg>
