<svg width="25" height="28" viewBox="0 0 25 28" fill="none" xmlns="http://www.w3.org/2000/svg">
<path d="M0.666504 27V25.375C0.666504 22.3582 1.89567 19.4649 4.08359 17.3317C6.27152 15.1984 9.23898 14 12.3332 14M12.3332 14C15.4274 14 18.3948 15.1984 20.5827 17.3317C22.7707 19.4649 23.9998 22.3582 23.9998 25.375V27M12.3332 14C14.1013 14 15.797 13.3152 17.0472 12.0962C18.2975 10.8772 18.9998 9.22391 18.9998 7.5C18.9998 5.77609 18.2975 4.12279 17.0472 2.90381C15.797 1.68482 14.1013 1 12.3332 1C10.5651 1 8.86937 1.68482 7.61913 2.90381C6.36888 4.12279 5.6665 5.77609 5.6665 7.5C5.6665 9.22391 6.36888 10.8772 7.61913 12.0962C8.86937 13.3152 10.5651 14 12.3332 14Z" stroke="white" stroke-linecap="round" stroke-linejoin="round"/>
</svg>
