<svg width="38" height="41" viewBox="0 0 38 41" fill="none" xmlns="http://www.w3.org/2000/svg">
<g id="Component 3">
<path id="Vector" d="M29.2235 21.3597C38.2334 21.3597 37.777 30.8181 37.777 30.8181C37.6038 33.1394 37.1002 37.1604 31.7179 39.1434C29.735 39.883 27.0123 40.3316 23.4477 40.3316H0.21875L0.785311 29.622V26.2777C9.17355 29.1105 19.1985 29.4489 22.1493 29.2836C22.4877 29.2836 22.8261 29.2286 23.1093 29.1735C26.9651 28.4338 26.4536 24.4128 21.9211 24.4128H0.785311V16.5911H21.9211C26.4536 16.5911 26.9651 12.5701 23.1093 11.8304C22.8261 11.7754 22.4877 11.7203 22.1493 11.7203C19.1985 11.5472 9.17355 11.8934 0.785311 14.7262V11.3819L0.21875 0.672363H23.4477C27.0202 0.672363 29.735 1.12876 31.7179 1.86057C37.1002 3.84353 37.6117 7.86453 37.777 10.1858C37.777 10.1858 38.2334 19.6443 29.2235 19.6443V21.3439V21.3597Z" fill="white"/>
</g>
</svg>
