<svg width="44" height="51" viewBox="0 0 44 51" fill="none" xmlns="http://www.w3.org/2000/svg">
<g id="Component 3">
<path id="Vector" d="M43.4952 50.9918H0.509026C0.509026 50.9918 0.959889 34.6022 3.88154 29.8675C5.82931 26.7312 9.8511 24.6976 16.2174 22.654C18.9407 21.8548 21.5377 20.9038 25.3701 19.7403C28.2286 18.8702 29.3919 17.7776 29.0673 16.3916C28.7426 14.8639 27.2457 14.2771 24.7208 14.1355C20.5007 13.8421 10.6987 14.4289 1.14926 18.071L1.08616 13.7712L0.5 0.00195312H26.7317C33.2874 0.00195312 43.937 0.952955 43.4861 14.8639C43.4861 14.8639 43.2878 20.2563 40.1136 23.3824C38.3642 25.1327 36.5427 26.2253 33.3595 27.3888C30.6994 28.2588 22.3853 30.8083 18.7513 31.9819C16.0912 32.7812 14.9189 33.5096 14.982 34.8956C15.1082 36.1299 16.2805 36.5751 18.4267 36.9393C22.2591 37.5261 33.2964 36.5751 42.909 32.9329V37.2327L43.4952 51.002V50.9918Z" fill="white"/>
</g>
</svg>
