<svg width="78" height="26" viewBox="0 0 78 26" fill="none" xmlns="http://www.w3.org/2000/svg">
<path d="M27.2925 7.52852L26.9841 8.36196L26.6756 7.52852L25.6716 4.81492L23.519 4.01758V25.4671H30.4556L30.4524 4.01758L28.2966 4.81492L27.2925 7.52852Z" fill="#D4BAFF"/>
<path d="M30.4545 3.37438L30.448 3.37766L27.823 4.32923L27.7967 4.33579L26.9829 6.54407L26.1659 4.33579L26.1462 4.32923L23.5311 3.32844L23.5146 3.32188L23.5311 3.31532L26.1659 2.705L26.9829 0.5L27.7967 2.705L30.448 3.3711L30.4545 3.37438Z" fill="#D4BAFF"/>
<path d="M22.0847 10.2279V10.2148V10.2017V10.182C22.0256 9.33868 21.8845 7.38634 20.7722 5.68008C19.44 3.63586 17.13 2.5957 13.9078 2.5957H0.805664L0.818789 2.81883L1.12067 8.60696V8.61681V8.62665V25.4759H7.55851V17.3745H13.2974C16.4672 17.3745 18.8395 16.5542 20.3456 14.9365C22.2487 12.889 22.0847 10.2542 22.0814 10.2279H22.0847ZM12.9956 12.0457H7.55851V8.49868H12.7921C12.8315 8.49212 12.8906 8.48556 12.9628 8.48556C13.0251 8.48556 13.094 8.49212 13.1629 8.50196C14.8364 8.58728 15.5779 9.49618 15.5582 10.3067C15.5386 11.1434 14.7281 12.0457 12.9956 12.0457Z" fill="#D4BAFF"/>
<path d="M77.1116 25.5L69.8239 2.62305H62.7068L55.3535 25.5H61.8275L63.1761 20.4632L63.2384 20.2237H63.4845L67.1497 20.1515H67.1661H67.1825L69.0659 20.3189L69.2956 20.3385L69.3547 20.5617L70.6344 25.4934H77.1083L77.1116 25.5ZM67.5926 15.1312H64.61L64.7183 14.7178L65.7256 10.9181L65.7912 10.6752H66.8708L66.9331 10.9213L67.9076 14.721L68.0126 15.1312H67.5894H67.5926Z" fill="#D4BAFF"/>
<path d="M54.0251 2.56055L46.7866 13.7595V14.4157L54.0251 25.4834H46.2091L43.3052 19.1571H42.7375L39.5908 25.4834H31.8076L39.2102 14.4157V13.6938L31.8109 2.56055H39.1708L42.6719 9.31009H43.3216L46.6619 2.56055H54.0218H54.0251Z" fill="#D4BAFF"/>
</svg>
