<svg width="46" height="42" viewBox="0 0 46 42" fill="none" xmlns="http://www.w3.org/2000/svg">
<g clip-path="url(#clip0_1489_26521)">
<path d="M17.4535 36.5963C17.2677 33.1966 17.7091 29.5916 15.9666 26.5113C13.202 21.5829 6.58071 19.575 1.49278 18.092L0.702876 19.1872C7.46354 20.0542 13.806 17.7269 16.5707 11.2926C17.9646 8.02977 18.5455 4.265 18.2667 0.728406L16.5939 1.16192C16.9192 5.33739 16.5707 10.1974 18.8475 13.9165C21.7051 18.5483 28.1405 19.575 33.1355 20.1683L33.2981 19.0731C31.0213 19.7119 28.6981 20.0998 26.3748 20.5333C24.7718 20.83 23.1687 21.2179 21.8212 22.1762C20.3111 23.2257 19.3586 24.8229 18.6616 26.4657C17.2444 29.7513 16.5242 33.3107 15.7808 36.7789C15.6182 37.5546 17.3374 37.3265 17.4768 36.642C18.1737 33.3792 18.8707 30.0251 20.1485 26.922C20.7758 25.3705 21.6122 23.7049 23.099 22.7694C24.3071 21.9936 25.7708 21.7655 27.1647 21.5145C29.3254 21.1266 31.486 20.7387 33.6001 20.1455C34.2274 19.9629 34.6688 19.1643 33.7628 19.0503C28.9072 18.4798 22.5879 17.4987 20.1253 12.7072C18.2899 9.12497 18.6152 4.63007 18.2899 0.751223C18.2434 0.0439038 16.5475 0.431789 16.6172 1.18474C16.8263 3.96838 16.3848 7.36808 15.4091 10.1517C14.5959 12.479 13.2484 14.6923 11.2272 16.1982C8.36961 18.2973 4.76857 18.5027 1.35339 18.0691C0.772573 18.0007 -0.412286 18.8905 0.56348 19.1643C5.44231 20.579 11.8777 22.4728 14.4798 27.2415C16.0828 30.1392 15.6646 33.6073 15.8273 36.7789C15.8737 37.6003 17.5697 37.3037 17.5232 36.642L17.4535 36.5963Z" fill="white"/>
</g>
<g clip-path="url(#clip1_1489_26521)">
<path d="M37.8523 17.1535C37.7707 15.6137 37.9645 13.9809 37.1996 12.5858C35.986 10.3537 33.0794 9.44427 30.8459 8.77255L30.4991 9.26859C33.4669 9.66128 36.2511 8.6072 37.4648 5.69299C38.0767 4.21521 38.3317 2.51008 38.2093 0.908295L37.475 1.10464C37.6178 2.99578 37.4648 5.19695 38.4643 6.88141C39.7187 8.97923 42.5437 9.44427 44.7364 9.71295L44.8078 9.21692C43.8084 9.50627 42.7885 9.68195 41.7686 9.8783C41.0649 10.0126 40.3612 10.1883 39.7697 10.6224C39.1068 11.0977 38.6886 11.8211 38.3827 12.5652C37.7605 14.0533 37.4444 15.6654 37.118 17.2362C37.0466 17.5875 37.8013 17.4842 37.8625 17.1742C38.1685 15.6964 38.4745 14.1773 39.0354 12.7718C39.3107 12.0691 39.6779 11.3147 40.3306 10.891C40.8609 10.5397 41.5035 10.4363 42.1154 10.3227C43.0639 10.147 44.0123 9.97131 44.9404 9.70262C45.2158 9.61995 45.4095 9.25825 45.0118 9.20658C42.8803 8.94823 40.1062 8.50386 39.0252 6.3337C38.2195 4.71125 38.3623 2.67543 38.2195 0.918629C38.1991 0.598272 37.4546 0.773951 37.4852 1.11498C37.577 2.37574 37.3832 3.91552 36.9549 5.17628C36.5979 6.23036 36.0064 7.23277 35.1191 7.91482C33.8647 8.86556 32.2839 8.95856 30.7847 8.76221C30.5297 8.73121 30.0096 9.13424 30.4379 9.25825C32.5796 9.89897 35.4047 10.7567 36.5469 12.9165C37.2506 14.229 37.067 15.7997 37.1384 17.2362C37.1588 17.6082 37.9033 17.4739 37.8829 17.1742L37.8523 17.1535Z" fill="white"/>
</g>
<g clip-path="url(#clip2_1489_26521)">
<path d="M30.2245 40.7492C30.1429 39.2094 30.3367 37.5766 29.5718 36.1815C28.3581 33.9494 25.4515 33.04 23.218 32.3683L22.8712 32.8643C25.839 33.257 28.6233 32.2029 29.8369 29.2887C30.4488 27.8109 30.7038 26.1058 30.5814 24.504L29.8471 24.7003C29.9899 26.5915 29.8369 28.7927 30.8364 30.4771C32.0908 32.5749 34.9158 33.04 37.1086 33.3087L37.1799 32.8126C36.1805 33.102 35.1606 33.2777 34.1408 33.474C33.437 33.6083 32.7333 33.784 32.1418 34.2181C31.4789 34.6934 31.0608 35.4168 30.7548 36.1609C30.1327 37.649 29.8165 39.2611 29.4902 40.8319C29.4188 41.1832 30.1735 41.0799 30.2347 40.7699C30.5406 39.2921 30.8466 37.773 31.4075 36.3676C31.6829 35.6648 32.05 34.9104 32.7027 34.4867C33.2331 34.1354 33.8756 34.032 34.4875 33.9184C35.436 33.7427 36.3845 33.567 37.3125 33.2983C37.5879 33.2156 37.7817 32.854 37.3839 32.8023C35.2524 32.5439 32.4784 32.0996 31.3973 29.9294C30.5916 28.3069 30.7344 26.2711 30.5916 24.5143C30.5712 24.194 29.8267 24.3697 29.8573 24.7107C29.9491 25.9714 29.7553 27.5112 29.327 28.772C28.97 29.8261 28.3785 30.8285 27.4912 31.5105C26.2368 32.4613 24.656 32.5543 23.1568 32.3579C22.9018 32.3269 22.3817 32.7299 22.81 32.854C24.9518 33.4947 27.7768 34.3524 28.919 36.5122C29.6227 37.8247 29.4392 39.3954 29.5106 40.8319C29.531 41.2039 30.2755 41.0696 30.2551 40.7699L30.2245 40.7492Z" fill="white"/>
</g>
<defs>
<clipPath id="clip0_1489_26521">
<rect width="34.7559" height="36.8947" fill="white" transform="translate(0.12207 0.363281)"/>
</clipPath>
<clipPath id="clip1_1489_26521">
<rect width="15.2572" height="16.7102" fill="white" transform="translate(30.2441 0.743164)"/>
</clipPath>
<clipPath id="clip2_1489_26521">
<rect width="15.2572" height="16.7102" fill="white" transform="translate(22.6163 24.3389)"/>
</clipPath>
</defs>
</svg>
